<svg xmlns="http://www.w3.org/2000/svg" width="168.859" height="49.944" viewBox="18 22 168.859 49.944"><path d="M186.358 23.864 103.08 71.81a.999.999 0 0 1-.5.134 1.002 1.002 0 0 1-.212-.023 1 1 0 0 1-.213.023.997.997 0 0 1-.128-.008.998.998 0 0 1-.37-.126L18.5 23.864a1.017 1.017 0 0 1-.044-.027.999.999 0 0 1-.447-.97.996.996 0 0 1 .125-.368 1.016 1.016 0 0 1 .018-.03c.284-.454.88-.605 1.349-.335l41.577 23.973 41.29 23.806 82.989-47.779a1 1 0 0 1 .375-.126c.377-.047.763.123.975.462a1.016 1.016 0 0 1 .018.03.995.995 0 0 1 .126.366c.052.39-.13.79-.493.998Z" fill="rgba(236, 236, 236, 1)" fill-rule="evenodd" data-name="Rounded Rectangle 6 copy 2"/></svg>